# xmcd CD database file generated by OrangeCD 5.2
#
# Track frame offsets:
#	150
#	12247
#	29232
#	52215
#	69200
#	83605
#	99935
#	120665
#	135507
#	148327
#	165245
#	180045
#	193345
#	208367
#	226792
#	249350
#
# Disc length: 3551 seconds
#
# Revision: 3
# Processed by: cddbd v1.5.1PL0 Copyright (c) Steve Scherf et al.
# Submitted via: OrangeCD 5.2
#
DISCID=d60ddd10
DTITLE=KnockOut Greg and Blue Weather - Doin' Alright
DYEAR=1997
DGENRE=Blues
TTITLE0=Doin' Alright
TTITLE1=I Don't Want No One
TTITLE2=I'll Take the Fifth
TTITLE3=Keep a Dollar in Your Pocket
TTITLE4=Sufferin' Mind
TTITLE5=Rockwell Street Boogie
TTITLE6=She's Takin' It Out on Me
TTITLE7=Neighbour
TTITLE8=How Can You Be So Mean
TTITLE9=100 Ways
TTITLE10=Bakershop Boogie
TTITLE11=A Fool's Education
TTITLE12=Hollywood Bop
TTITLE13=Just My Kind
TTITLE14=Please Mr. Foreman
TTITLE15=Yes Indeed
EXTD=
EXTT0=
EXTT1=
EXTT2=
EXTT3=
EXTT4=
EXTT5=
EXTT6=
EXTT7=
EXTT8=
EXTT9=
EXTT10=
EXTT11=
EXTT12=
EXTT13=
EXTT14=
EXTT15=
PLAYORDER=
